<?xml version="1.0" standalone="no"?>
<!DOCTYPE svg PUBLIC "-//W3C//DTD SVG 20010904//EN"
 "http://www.w3.org/TR/2001/REC-SVG-20010904/DTD/svg10.dtd">
<svg version="1.0" xmlns="http://www.w3.org/2000/svg"
 width="112.000000pt" height="112.000000pt" viewBox="0 0 112.000000 112.000000"
 preserveAspectRatio="xMidYMid meet">

<g transform="translate(0.000000,112.000000) scale(0.100000,-0.100000)"
fill="#000000" stroke="none">
<path d="M530 1110 c0 -5 7 -10 15 -10 11 0 15 -12 15 -45 0 -25 5 -45 10 -45
6 0 10 20 10 45 0 34 4 45 16 45 8 0 12 5 9 10 -3 6 -22 10 -41 10 -19 0 -34
-4 -34 -10z"/>
<path d="M444 1102 c-14 -9 -26 -112 -14 -112 6 0 10 6 10 14 0 20 38 30 56
15 29 -24 25 1 -7 45 -18 25 -33 46 -33 46 -1 0 -6 -4 -12 -8z m26 -54 c0 -5
-4 -8 -10 -8 -5 0 -10 10 -10 23 0 18 2 19 10 7 5 -8 10 -18 10 -22z"/>
<path d="M640 1055 l-31 -45 39 6 c34 5 40 4 45 -16 4 -15 2 -20 -7 -17 -50
19 -197 16 -276 -6 -8 -2 -12 -2 -9 0 10 6 -45 103 -56 99 -5 -2 -9 -20 -9
-40 l1 -37 -21 20 c-24 22 -46 28 -46 11 0 -24 34 -90 46 -90 18 0 18 11 -1
36 -8 10 -14 24 -15 29 0 6 10 -5 22 -24 l21 -33 -23 -18 c-22 -17 -23 -16
-57 21 -20 22 -42 39 -49 39 -16 0 -19 -16 -4 -25 8 -5 7 -11 -1 -21 -10 -13
-14 -12 -29 1 -13 12 -20 13 -25 5 -4 -7 10 -30 35 -55 23 -23 38 -45 33 -48
-5 -3 -30 8 -56 24 -46 28 -67 31 -67 7 0 -6 8 -20 17 -30 16 -18 15 -18 -17
-16 -53 5 -49 -22 9 -57 48 -30 49 -31 36 -60 -12 -26 -13 -27 -14 -8 -2 37
-71 59 -99 31 -20 -20 -15 -76 7 -88 27 -14 64 -13 80 3 11 10 13 9 7 -6 -3
-10 -6 -24 -6 -30 0 -8 -19 -11 -61 -9 -47 3 -60 1 -57 -9 3 -8 15 -16 28 -19
l23 -5 -27 -12 c-14 -7 -26 -19 -26 -28 0 -12 12 -15 55 -15 30 0 55 5 55 10
0 6 -15 10 -32 10 l-33 0 33 20 c18 11 35 20 37 20 3 0 5 -17 5 -37 -1 -35 -5
-41 -55 -71 -76 -46 -73 -57 18 -72 32 -5 54 -4 58 2 3 5 9 0 12 -11 3 -12 1
-18 -4 -15 -12 7 -99 -43 -99 -56 0 -13 27 -13 35 0 16 25 24 7 9 -21 -23 -45
-5 -56 42 -27 22 14 44 27 50 31 7 4 19 -4 27 -17 15 -23 15 -24 -3 -19 -55
15 -93 -63 -50 -102 41 -37 114 21 88 69 -7 13 4 8 33 -16 61 -50 115 -74 190
-88 81 -15 199 -5 258 21 25 11 42 16 38 13 -4 -4 1 -16 10 -26 14 -16 15 -24
5 -51 -7 -18 -8 -35 -3 -40 5 -5 12 -1 16 11 4 13 12 19 21 15 9 -3 14 1 14
12 0 11 7 15 20 13 10 -2 20 2 22 7 2 6 -11 11 -27 13 -20 2 -35 12 -46 30
-15 27 -15 28 22 54 29 20 36 22 32 9 -6 -24 34 -71 61 -71 27 0 56 29 56 57
0 27 -44 67 -69 60 -15 -4 -13 4 15 40 19 24 34 49 34 54 0 6 7 3 16 -5 8 -9
21 -17 27 -17 7 -1 -4 -4 -23 -8 -48 -8 -45 -30 8 -59 48 -27 70 -21 33 9
l-23 19 36 0 c52 0 46 24 -13 58 -35 20 -47 32 -42 41 6 9 10 10 12 2 3 -8 22
-10 62 -5 73 9 74 26 7 74 -27 19 -50 37 -50 40 0 3 27 3 60 2 50 -3 60 -1 60
12 0 11 -9 16 -27 16 l-28 1 28 17 c37 23 34 38 -10 46 -58 9 -73 7 -73 -8 0
-9 12 -16 32 -18 l31 -3 -35 -17 -36 -17 -4 58 -3 58 22 -14 c46 -30 102 10
89 63 -12 47 -79 51 -111 7 -10 -14 -13 -12 -23 16 -7 19 -7 29 -1 26 14 -9
101 44 96 58 -2 7 -18 12 -35 12 -31 0 -31 0 -12 20 13 14 16 25 9 37 -8 15
-13 14 -57 -9 -60 -33 -58 -31 -44 -45 8 -8 16 -8 29 3 16 12 15 11 -1 -9
l-19 -22 -15 22 c-8 13 -27 35 -41 51 -23 26 -24 28 -8 44 23 23 47 3 27 -22
-8 -10 -10 -19 -4 -25 13 -13 89 64 79 80 -5 8 -12 7 -25 -5 -14 -13 -19 -13
-28 -2 -8 10 -8 17 -1 24 6 6 8 17 4 23 -5 8 -22 -2 -51 -31 -34 -34 -47 -40
-56 -31 -9 9 -9 12 0 12 12 0 34 37 46 78 9 27 -18 31 -46 5 -18 -16 -18 -15
-16 17 4 51 -17 47 -48 -9 -15 -28 -31 -51 -35 -51 -4 0 -11 29 -14 65 -9 79
-22 83 -65 20z m36 -12 c-10 -10 -19 5 -10 18 6 11 8 11 12 0 2 -7 1 -15 -2
-18z m-296 -67 c0 -25 -4 -19 -18 24 -11 32 -10 33 3 16 8 -11 15 -29 15 -40z
m396 20 c-8 -19 -11 -37 -8 -41 4 -3 -1 -3 -10 0 -15 6 -14 10 4 41 26 44 32
44 14 0z m-83 -45 c107 -37 192 -114 245 -221 25 -50 27 -65 27 -170 0 -104
-3 -121 -27 -173 -37 -78 -117 -160 -193 -198 -206 -101 -456 -17 -558 190
-30 62 -32 71 -32 181 0 105 2 120 27 170 52 105 137 183 241 220 72 26 196
26 270 1z m115 0 c-7 -11 -16 -17 -21 -14 -4 3 0 11 10 19 24 18 25 17 11 -5z
m-548 -36 c10 -12 10 -18 0 -30 -11 -14 -14 -13 -27 5 -23 32 2 55 27 25z
m-59 -93 c2 2 1 -1 -3 -7 -5 -5 -17 0 -31 14 l-22 23 26 -16 c14 -9 28 -15 30
-14z m-24 -43 c-9 -15 -12 -15 -29 0 -10 8 -18 16 -18 16 0 0 13 0 29 0 23 0
26 -3 18 -16z m803 -9 c-8 -5 -19 -10 -25 -10 -5 0 -3 5 5 10 8 5 20 10 25 10
6 0 3 -5 -5 -10z m-875 -75 c0 -13 -8 -21 -24 -23 -28 -4 -46 11 -37 33 9 25
61 16 61 -10z m975 -14 c0 -20 -32 -37 -50 -26 -5 3 -10 15 -10 26 0 14 7 19
30 19 23 0 30 -5 30 -19z m-948 -231 c5 -35 -17 -42 -27 -9 -6 17 5 37 21 39
1 0 4 -13 6 -30z m881 -20 c-3 -11 -12 -20 -20 -20 -10 0 -13 6 -9 16 3 9 6
23 6 31 0 12 3 13 14 4 8 -7 12 -21 9 -31z m-933 10 c0 -5 -5 -10 -11 -10 -5
0 -7 5 -4 10 3 6 8 10 11 10 2 0 4 -4 4 -10z m77 -122 c-29 -22 -34 -15 -12
18 13 21 19 24 26 13 6 -10 1 -19 -14 -31z m68 -88 c10 -16 -14 -50 -35 -50
-22 0 -31 19 -18 43 9 18 43 23 53 7z m703 -12 c19 -19 15 -48 -7 -48 -24 0
-45 25 -37 45 7 18 27 20 44 3z"/>
<path d="M557 814 c-12 -12 3 -22 23 -17 11 3 17 9 14 14 -6 10 -28 12 -37 3z"/>
<path d="M496 799 c15 -18 11 -56 -6 -72 -12 -10 -12 -9 -1 6 12 15 11 17 -5
17 -15 0 -16 2 -5 9 8 5 11 16 7 26 -5 15 -13 16 -49 10 -23 -4 -50 -8 -59 -8
-9 -1 -15 -4 -13 -8 5 -7 -46 -34 -59 -30 -5 1 -6 -5 -3 -14 4 -8 1 -15 -6
-15 -34 0 -62 -135 -33 -159 11 -9 12 -6 9 16 l-4 28 13 -24 c7 -13 16 -23 21
-22 4 1 21 -6 37 -16 35 -20 45 -14 29 19 -15 34 -1 59 56 94 24 16 46 36 49
44 3 11 4 11 5 -2 1 -20 14 -23 41 -8 13 7 21 7 25 0 10 -16 33 -11 56 13 l21
22 -12 -25 c-10 -18 -10 -25 -1 -28 6 -2 9 -8 6 -13 -4 -5 1 -6 9 -3 10 4 27
-6 45 -25 26 -28 35 -31 88 -31 47 1 55 3 42 13 -8 7 -18 20 -22 30 -4 9 -17
22 -29 28 l-23 10 23 -5 c36 -7 14 14 -42 40 -57 26 -52 31 9 10 22 -8 50 -24
64 -35 13 -12 25 -20 27 -18 5 5 -44 62 -53 63 -5 0 -26 6 -48 12 -53 16 -65
15 -65 -3 0 -8 -7 -15 -15 -15 -11 0 -13 8 -8 31 5 28 4 30 -18 27 -18 -2 -24
-9 -24 -30 0 -33 -13 -47 -25 -28 -13 20 -12 33 0 25 6 -3 10 -2 10 2 0 17
-25 41 -50 48 -20 7 -23 5 -14 -6z m-124 -60 c-18 -12 -39 -33 -47 -48 -9 -16
-14 -20 -15 -10 0 21 20 47 50 63 40 22 48 18 12 -5z m-85 -65 c-3 -3 -12 -4
-19 -1 -8 3 -5 6 6 6 11 1 17 -2 13 -5z m123 2 c0 -2 -8 -10 -17 -17 -16 -13
-17 -12 -4 4 13 16 21 21 21 13z"/>
<path d="M648 783 c7 -3 16 -2 19 1 4 3 -2 6 -13 5 -11 0 -14 -3 -6 -6z"/>
<path d="M680 780 c0 -6 7 -10 15 -10 8 0 15 2 15 4 0 2 -7 6 -15 10 -8 3 -15
1 -15 -4z"/>
<path d="M241 644 c0 -11 3 -14 6 -6 3 7 2 16 -1 19 -3 4 -6 -2 -5 -13z"/>
<path d="M786 645 c4 -8 10 -15 15 -15 4 0 6 7 3 15 -4 8 -10 15 -15 15 -4 0
-6 -7 -3 -15z"/>
<path d="M431 629 c-23 -21 -24 -40 -3 -47 7 -2 12 5 12 15 0 15 2 16 10 3 9
-13 11 -13 20 0 5 8 10 10 10 5 0 -6 9 -11 19 -11 11 0 18 3 16 7 -3 3 7 11
22 18 33 15 29 18 -33 25 -43 4 -55 2 -73 -15z"/>
<path d="M630 646 c0 -3 9 -10 20 -16 11 -6 20 -8 20 -6 0 3 -9 10 -20 16 -11
6 -20 8 -20 6z"/>
<path d="M395 609 c-4 -6 -5 -12 -2 -15 2 -3 7 2 10 11 7 17 1 20 -8 4z"/>
<path d="M820 610 c0 -5 5 -10 11 -10 5 0 7 5 4 10 -3 6 -8 10 -11 10 -2 0 -4
-4 -4 -10z"/>
<path d="M666 564 c-3 -9 -1 -12 4 -9 14 9 12 -9 -2 -24 -11 -10 -10 -11 4 -6
9 4 18 15 21 25 6 22 -19 35 -27 14z"/>
<path d="M770 570 c0 -6 7 -10 15 -10 8 0 15 2 15 4 0 2 -7 6 -15 10 -8 3 -15
1 -15 -4z"/>
<path d="M600 556 c0 -8 5 -18 10 -21 6 -3 10 1 10 9 0 8 -4 18 -10 21 -5 3
-10 -1 -10 -9z"/>
<path d="M483 545 c3 -16 20 -25 47 -25 17 0 21 3 12 9 -11 6 -9 9 7 14 11 3
19 0 18 -5 -1 -6 4 -13 11 -15 7 -3 12 4 12 16 0 19 -5 21 -54 19 -30 -2 -53
-7 -53 -13z"/>
<path d="M276 531 c-18 -7 -18 -8 5 -24 25 -18 64 -22 73 -8 3 5 -5 16 -19 25
-27 18 -31 18 -59 7z"/>
<path d="M630 501 c0 -5 9 -7 20 -4 11 3 20 7 20 9 0 2 -9 4 -20 4 -11 0 -20
-4 -20 -9z"/>
<path d="M535 480 c4 -6 11 -8 16 -5 5 4 9 2 9 -4 0 -6 7 -8 15 -5 26 10 17
24 -16 24 -18 0 -28 -4 -24 -10z"/>
<path d="M386 471 c-13 -20 5 -32 44 -29 22 1 36 6 33 11 -4 6 4 7 20 3 14 -3
29 -2 32 4 4 6 -8 10 -28 10 -19 0 -48 3 -65 6 -17 4 -32 1 -36 -5z"/>
<path d="M428 413 c6 -2 18 -2 25 0 6 3 1 5 -13 5 -14 0 -19 -2 -12 -5z"/>
<path d="M540 397 c0 -7 5 -18 12 -25 6 -6 26 -37 42 -69 32 -57 53 -68 48
-23 -2 14 -16 36 -32 50 -16 14 -32 37 -36 53 -6 27 -34 39 -34 14z"/>
<path d="M637 393 c-10 -10 -8 -35 2 -29 5 4 7 -4 4 -15 -6 -21 -4 -22 47 -15
36 5 58 14 71 29 16 20 16 23 1 29 -22 9 -117 10 -125 1z"/>
<path d="M285 156 c-10 -15 -23 -22 -34 -19 -9 2 -23 -3 -30 -11 -12 -14 -10
-16 12 -16 20 0 25 -4 20 -16 -5 -13 -2 -15 15 -9 16 5 22 2 22 -9 0 -9 5 -16
10 -16 14 0 13 33 -2 48 -9 9 -8 16 5 30 9 10 17 24 17 30 0 20 -19 13 -35
-12z"/>
<path d="M371 99 c-7 -23 -15 -47 -18 -55 -3 -8 -1 -14 5 -14 9 0 42 80 42
102 0 23 -18 3 -29 -33z"/>
<path d="M694 105 c12 -46 25 -75 36 -75 13 0 13 -2 -6 53 -16 48 -41 67 -30
22z"/>
<path d="M447 113 c-3 -5 -8 -30 -12 -57 -6 -35 -5 -47 4 -42 6 4 11 16 11 26
0 33 16 30 29 -6 7 -18 16 -34 21 -34 5 0 13 23 19 50 13 61 13 60 2 60 -4 0
-12 -15 -18 -32 l-9 -33 -13 38 c-12 35 -24 46 -34 30z"/>
<path d="M644 83 l7 -38 -28 33 c-15 18 -31 32 -35 32 -9 0 -10 -56 -2 -87 10
-38 25 -26 19 14 l-7 38 27 -32 c14 -18 31 -33 36 -33 10 0 12 34 3 79 -9 45
-28 39 -20 -6z"/>
</g>
</svg>
